<svg width="32" height="32" viewBox="0 0 32 32" fill="none" xmlns="http://www.w3.org/2000/svg">
<path d="M1.51367 9.96098V22.0395C1.92986 22.4792 2.48179 22.7662 3.08075 22.8543C3.6797 22.9424 4.29089 22.8266 4.81607 22.5254L16.1652 16.0009L4.81736 9.47644C4.29227 9.17485 3.68103 9.05853 3.08186 9.14617C2.4827 9.23381 1.93039 9.52033 1.51367 9.95969L1.51367 9.96098ZM1.51367 9.96098C1.51497 9.94979 1.51497 9.93849 1.51367 9.9273V9.96098Z" fill="url(#paint0_linear)"/>
<path d="M15.9502 4.72435e-06C15.2432 -0.00010315 14.5485 0.185289 13.9356 0.537664L3.52698 6.52447C2.92164 6.87271 2.41757 7.37276 2.0645 7.97529C1.71143 8.57782 1.52158 9.262 1.51367 9.96031C1.9303 9.52126 2.48237 9.23494 3.08126 9.1473C3.68014 9.05967 4.29111 9.1758 4.81607 9.47707L16.1652 16.0002L27.2553 9.62476C27.7642 9.33132 28.1619 8.87785 28.3864 8.33493C28.6108 7.79202 28.6495 7.19012 28.4964 6.62294L17.9674 0.533778C17.353 0.182941 16.6576 -0.00107501 15.9502 4.72435e-06V4.72435e-06Z" fill="url(#paint1_linear)"/>
<path d="M27.2553 9.62414L4.81607 22.5228C4.29136 22.825 3.68017 22.9416 3.08105 22.854C2.48193 22.7663 1.9298 22.4794 1.51367 22.0395C1.52237 22.7386 1.7134 23.4233 2.06787 24.0259C2.42234 24.6285 2.92797 25.1281 3.53475 25.4754L13.9511 31.4622C14.5593 31.8124 15.2484 31.9977 15.9502 31.9999H16.002C16.7023 31.996 17.3897 31.8108 17.9972 31.4622L28.4316 25.4754C29.0485 25.1266 29.5629 24.6219 29.9235 24.0119C30.2841 23.4019 30.4782 22.7079 30.4864 21.9994V10.0271C30.4783 9.34227 30.2966 8.67074 29.9583 8.07528C29.62 7.47983 29.0743 6.96722 28.4902 6.60962C28.6326 7.18295 28.6309 7.68774 28.4199 8.24243C28.209 8.79712 27.7703 9.33483 27.2553 9.62414Z" fill="url(#paint2_linear)"/>
<g opacity="0.7">
<path d="M1.51367 9.96098V22.0395C1.92986 22.4792 2.48179 22.7662 3.08075 22.8543C3.6797 22.9424 4.29089 22.8266 4.81607 22.5254L16.1652 16.0009L4.81736 9.47644C4.29227 9.17485 3.68103 9.05853 3.08186 9.14617C2.4827 9.23381 1.93039 9.52033 1.51367 9.95969L1.51367 9.96098ZM1.51367 9.96098C1.51497 9.94979 1.51497 9.93849 1.51367 9.9273V9.96098Z" fill="url(#paint3_linear)"/>
<path d="M15.9502 4.72435e-06C15.2432 -0.00010315 14.5485 0.185289 13.9356 0.537664L3.52698 6.52447C2.92164 6.87271 2.41757 7.37276 2.0645 7.97529C1.71143 8.57782 1.52158 9.262 1.51367 9.96031C1.9303 9.52126 2.48237 9.23494 3.08126 9.1473C3.68014 9.05967 4.29111 9.1758 4.81607 9.47707L16.1652 16.0002L27.2553 9.62476C27.7642 9.33132 28.1619 8.87785 28.3864 8.33493C28.6108 7.79202 28.6495 7.19012 28.4964 6.62294L17.9674 0.533778C17.353 0.182941 16.6576 -0.00107501 15.9502 4.72435e-06V4.72435e-06Z" fill="url(#paint4_linear)"/>
<path d="M27.2553 9.62414L4.81607 22.5228C4.29136 22.825 3.68017 22.9416 3.08105 22.854C2.48193 22.7663 1.9298 22.4794 1.51367 22.0395C1.52237 22.7386 1.7134 23.4233 2.06787 24.0259C2.42234 24.6285 2.92797 25.1281 3.53475 25.4754L13.9511 31.4622C14.5593 31.8124 15.2484 31.9977 15.9502 31.9999H16.002C16.7023 31.996 17.3897 31.8108 17.9972 31.4622L28.4316 25.4754C29.0485 25.1266 29.5629 24.6219 29.9235 24.0119C30.2841 23.4019 30.4782 22.7079 30.4864 21.9994V10.0271C30.4783 9.34227 30.2966 8.67074 29.9583 8.07528C29.62 7.47983 29.0821 6.97503 28.498 6.61743C28.6404 7.19076 28.6309 7.75024 28.4043 8.30493C28.1777 8.85962 27.7703 9.33483 27.2553 9.62414Z" fill="url(#paint5_linear)"/>
</g>
<defs>
<linearGradient id="paint0_linear" x1="3.54771" y1="23.3053" x2="9.30391" y2="12.0598" gradientUnits="userSpaceOnUse">
<stop stop-color="#00DAD8"/>
<stop offset="1" stop-color="#085EA7"/>
</linearGradient>
<linearGradient id="paint1_linear" x1="13.6441" y1="1.55598" x2="16.3738" y2="15.0337" gradientUnits="userSpaceOnUse">
<stop stop-color="#0BF6DF"/>
<stop offset="1" stop-color="#0095FF"/>
</linearGradient>
<linearGradient id="paint2_linear" x1="30.638" y1="9.59693" x2="7.13513" y2="30.9466" gradientUnits="userSpaceOnUse">
<stop stop-color="#00FBC6"/>
<stop offset="1" stop-color="#0095FF"/>
</linearGradient>
<linearGradient id="paint3_linear" x1="-5.8121" y1="16.0004" x2="7.92643" y2="30.6235" gradientUnits="userSpaceOnUse">
<stop stop-color="#00D4DC"/>
<stop offset="1" stop-color="#00B6ED"/>
</linearGradient>
<linearGradient id="paint4_linear" x1="-12.0237" y1="8.00012" x2="1.99242" y2="31.7176" gradientUnits="userSpaceOnUse">
<stop stop-color="#00D4DC"/>
<stop offset="1" stop-color="#00B6ED"/>
</linearGradient>
<linearGradient id="paint5_linear" x1="-12.9727" y1="19.3086" x2="12.1892" y2="48.0297" gradientUnits="userSpaceOnUse">
<stop stop-color="#00D4DC"/>
<stop offset="1" stop-color="#00B6ED"/>
</linearGradient>
</defs>
</svg>
