<svg width="47" height="50" viewBox="0 0 47 50" fill="none" xmlns="http://www.w3.org/2000/svg">
<path d="M4.88178 45.0863C5.09469 45.299 5.38331 45.4184 5.68422 45.4184C5.98514 45.4184 6.27375 45.299 6.48666 45.0863L9.16651 42.4065C9.36709 42.1912 9.47629 41.9065 9.4711 41.6124C9.46591 41.3182 9.34673 41.0375 9.13868 40.8294C8.93064 40.6214 8.64995 40.5022 8.35578 40.497C8.0616 40.4918 7.77689 40.601 7.56163 40.8016L4.88178 43.4815C4.66913 43.6944 4.54969 43.983 4.54969 44.2839C4.54969 44.5848 4.66913 44.8734 4.88178 45.0863Z" fill="white"/>
<path d="M5.94917 33.2769L1.67201 37.5919C1.56045 37.6958 1.47096 37.8212 1.4089 37.9605C1.34684 38.0998 1.31347 38.2501 1.31078 38.4026C1.30809 38.5551 1.33613 38.7065 1.39324 38.8479C1.45035 38.9893 1.53536 39.1177 1.64319 39.2256C1.75101 39.3334 1.87946 39.4184 2.02085 39.4755C2.16224 39.5326 2.31369 39.5607 2.46616 39.558C2.61863 39.5553 2.76899 39.5219 2.90828 39.4599C3.04757 39.3978 3.17294 39.3083 3.27689 39.1967L7.56162 34.912C7.77846 34.6982 7.90147 34.407 7.9036 34.1025C7.90573 33.7979 7.7868 33.505 7.57298 33.2882C7.35915 33.0714 7.06795 32.9484 6.76342 32.9462C6.4589 32.9441 6.16601 33.063 5.94917 33.2769Z" fill="white"/>
<path d="M16.661 44.0114C16.8616 43.7961 16.9708 43.5114 16.9656 43.2172C16.9604 42.9231 16.8412 42.6424 16.6332 42.4343C16.4251 42.2263 16.1445 42.1071 15.8503 42.1019C15.5561 42.0967 15.2714 42.2059 15.0561 42.4065L10.7714 46.6912C10.6598 46.7952 10.5703 46.9205 10.5083 47.0598C10.4462 47.1991 10.4128 47.3495 10.4102 47.502C10.4075 47.6544 10.4355 47.8059 10.4926 47.9473C10.5497 48.0887 10.6347 48.2171 10.7426 48.3249C10.8504 48.4328 10.9788 48.5178 11.1202 48.5749C11.2616 48.632 11.4131 48.66 11.5655 48.6573C11.718 48.6547 11.8684 48.6213 12.0077 48.5592C12.147 48.4972 12.2723 48.4077 12.3763 48.2961L16.661 44.0114Z" fill="white"/>
<path d="M31.9149 21.8383C32.7905 21.8367 33.6385 21.5316 34.3144 20.975C34.9903 20.4183 35.4523 19.6446 35.6217 18.7855C35.7911 17.9264 35.6575 17.0352 35.2435 16.2636C34.8295 15.4921 34.1608 14.8879 33.3513 14.554C32.5418 14.2202 31.6417 14.1773 30.8041 14.4327C29.9666 14.6881 29.2435 15.226 28.758 15.9547C28.2726 16.6834 28.0548 17.5579 28.1418 18.4292C28.2288 19.3005 28.6151 20.1147 29.2351 20.7331C29.5872 21.0843 30.0052 21.3627 30.465 21.5524C30.9248 21.742 31.4175 21.8392 31.9149 21.8383ZM30.31 16.4483C30.5152 16.2163 30.7657 16.0288 31.0461 15.8972C31.3264 15.7656 31.6307 15.6927 31.9403 15.683C32.2499 15.6734 32.5581 15.7271 32.8461 15.841C33.1342 15.9549 33.3958 16.1265 33.6151 16.3452C33.8344 16.564 34.0065 16.8252 34.1211 17.113C34.2357 17.4007 34.2901 17.7089 34.2812 18.0184C34.2723 18.328 34.2001 18.6325 34.0692 18.9132C33.9383 19.1939 33.7513 19.4448 33.5198 19.6505C33.0874 20.0633 32.5127 20.2936 31.9149 20.2936C31.3171 20.2936 30.7424 20.0633 30.31 19.6505C29.8847 19.2247 29.6458 18.6475 29.6458 18.0456C29.6458 17.4438 29.8847 16.8666 30.31 16.4408V16.4483Z" fill="white"/>
<path d="M1.13453 30.1579H11.8993L14.1023 32.3609L10.0749 38.3186C9.92941 38.537 9.86405 38.7991 9.88995 39.0602C9.91585 39.3214 10.0314 39.5655 10.217 39.7511C10.4026 39.9367 10.6467 40.0523 10.9079 40.0782C11.169 40.1041 11.4311 40.0387 11.6495 39.8932L17.6073 35.8659L19.8102 38.0688V48.8336C19.8039 49.0644 19.8682 49.2917 19.9944 49.4851C20.1206 49.6785 20.3028 49.8288 20.5166 49.916C20.7305 50.0032 20.9658 50.0231 21.1912 49.973C21.4167 49.923 21.6215 49.8055 21.7784 49.636L31.1276 40.249C31.3299 40.0475 31.4488 39.7772 31.4607 39.492L31.5364 30.8468L35.3215 27.8869C38.0534 25.785 40.0897 22.9099 41.1657 19.6354L45.1552 6.9553C45.2493 6.66244 45.2608 6.34933 45.1885 6.05035C45.1162 5.75138 44.9628 5.47813 44.7453 5.26063C44.5278 5.04313 44.2546 4.88981 43.9556 4.8175C43.6566 4.7452 43.3435 4.75671 43.0507 4.85078L30.363 8.81756C27.0885 9.89359 24.2134 11.9299 22.1115 14.6617L19.1516 18.4468L10.5064 18.5225C10.2212 18.5345 9.9509 18.6534 9.74941 18.8556L0.33209 28.22C0.173485 28.3788 0.0654969 28.581 0.0217648 28.8011C-0.0219672 29.0213 0.000518303 29.2494 0.0863815 29.4568C0.172245 29.6642 0.317634 29.8415 0.504187 29.9662C0.69074 30.091 0.910089 30.1577 1.13453 30.1579ZM13.8827 28.924L15.2908 27.1147L16.6988 28.5228L15.4043 30.438L13.8827 28.924ZM18.5233 29.8854L22.0358 27.9323L20.0827 31.4449L15.2529 34.7152L18.5233 29.8854ZM19.5074 34.5714L21.4378 33.2768L22.8458 34.6849L21.0214 36.0854L19.5074 34.5714ZM29.1442 38.9772L22.0812 46.0856V38.1521L29.2199 32.5955L29.1442 38.9772ZM40.6131 13.7609C39.8561 13.0871 39.099 12.3756 38.342 11.6337C37.585 10.8918 36.8961 10.1196 36.2224 9.36262L42.6419 7.34137L40.6131 13.7609ZM23.9132 16.032C25.7303 13.6636 28.2176 11.8964 31.0519 10.9599L34.6478 9.84711C35.4653 10.8085 36.3359 11.7624 37.2746 12.7011C38.2133 13.6398 39.1596 14.5179 40.121 15.3355L38.9855 18.8935C38.0482 21.7418 36.2724 24.2406 33.8907 26.0625L24.0495 33.7386L22.3462 32.0353L25.942 25.5553C26.0432 25.3434 26.0763 25.1053 26.0366 24.8739C25.9968 24.6424 25.8864 24.429 25.7203 24.2629C25.5543 24.0969 25.3408 23.9864 25.1094 23.9467C24.878 23.907 24.6399 23.94 24.428 24.0412L17.9479 27.6371L16.2446 25.9338L23.9132 16.032ZM10.9909 20.8087L17.3726 20.7482L11.8161 27.8869H3.88251L10.9909 20.8087Z" fill="white"/>
<path d="M17.2363 5.04761C17.1877 4.88669 17.0869 4.74652 16.9499 4.6492C16.8128 4.55188 16.6472 4.50295 16.4793 4.51013H12.5277L11.1347 0.52064C11.085 0.369185 10.9886 0.237311 10.8595 0.143822C10.7304 0.0503328 10.575 0 10.4156 0C10.2561 0 10.1008 0.0503328 9.97164 0.143822C9.84251 0.237311 9.74618 0.369185 9.6964 0.52064L8.49274 4.51013H4.36698C4.2046 4.50977 4.04641 4.56163 3.91576 4.65805C3.7851 4.75448 3.68892 4.89036 3.6414 5.04563C3.59389 5.2009 3.59756 5.36734 3.65188 5.52037C3.70619 5.6734 3.80828 5.80491 3.94305 5.89548L7.19067 8.07569L5.98701 12.0046C5.93764 12.1582 5.93861 12.3235 5.98978 12.4764C6.04095 12.6294 6.13963 12.762 6.27145 12.855C6.40327 12.9479 6.56133 12.9964 6.7226 12.9932C6.88386 12.99 7.0399 12.9354 7.16796 12.8373L10.4231 10.3846L13.6783 12.8373C13.8059 12.934 13.9609 12.9877 14.1209 12.9908C14.2809 12.9939 14.4378 12.9462 14.569 12.8545C14.7003 12.7628 14.799 12.6319 14.8512 12.4805C14.9033 12.3292 14.9062 12.1652 14.8593 12.0122L13.6556 8.07569L16.9032 5.89548C17.0432 5.80946 17.1515 5.68021 17.2116 5.52725C17.2717 5.3743 17.2803 5.20594 17.2363 5.04761ZM12.3762 7.12942C12.2417 7.21971 12.1396 7.35082 12.0851 7.50344C12.0306 7.65607 12.0265 7.82215 12.0734 7.97728L12.7623 10.2483L10.9001 8.84785C10.769 8.74957 10.6096 8.69645 10.4458 8.69645C10.2821 8.69645 10.1227 8.74957 9.99164 8.84785L8.15208 10.2181L8.84097 7.947C8.8879 7.79187 8.88381 7.62578 8.8293 7.47316C8.77479 7.32053 8.67274 7.18943 8.53816 7.09914L6.85758 6.02417H9.0605C9.22845 6.03135 9.39401 5.98242 9.53108 5.8851C9.66815 5.78778 9.76893 5.64761 9.81752 5.48668L10.5064 3.21563L11.3089 5.48668C11.3605 5.63441 11.4566 5.7625 11.5841 5.85333C11.7115 5.94416 11.864 5.99326 12.0204 5.99389H14.0265L12.3762 7.12942Z" fill="white"/>
<path d="M42.7403 38.576L43.4973 36.3428L45.7305 36.4412C45.8947 36.4503 46.0573 36.4058 46.1939 36.3142C46.3305 36.2227 46.4335 36.0893 46.4875 35.934C46.5419 35.7808 46.5455 35.6141 46.4978 35.4587C46.4501 35.3032 46.3536 35.1673 46.2226 35.071L44.3906 33.7235L45.1098 31.3919C45.157 31.2395 45.1549 31.076 45.1037 30.9249C45.0526 30.7738 44.955 30.6427 44.8248 30.5503C44.6947 30.458 44.5387 30.4091 44.3792 30.4107C44.2196 30.4123 44.0646 30.4642 43.9364 30.5592L42.0363 31.9823L40.1286 30.5819C39.998 30.4875 39.8407 30.4372 39.6796 30.4383C39.5185 30.4395 39.3619 30.492 39.2327 30.5883C39.1035 30.6846 39.0084 30.8195 38.9612 30.9736C38.914 31.1277 38.9172 31.2927 38.9703 31.4449L39.7274 33.5418L37.8348 34.9499C37.7077 35.0452 37.6138 35.1781 37.5664 35.3298C37.5191 35.4814 37.5206 35.6441 37.5708 35.7949C37.6211 35.9456 37.7175 36.0767 37.8464 36.1696C37.9753 36.2625 38.1301 36.3125 38.289 36.3125H40.6206L41.2944 38.5836C41.3404 38.7357 41.4332 38.8695 41.5596 38.966C41.686 39.0625 41.8395 39.1167 41.9984 39.121C42.1648 39.1244 42.3276 39.0728 42.4617 38.9742C42.5958 38.8757 42.6937 38.7357 42.7403 38.576ZM42.2785 35.3132L42.0817 35.881L41.9151 35.3208C41.8665 35.1599 41.7658 35.0197 41.6287 34.9224C41.4916 34.8251 41.3261 34.7761 41.1581 34.7833H40.5828L41.0597 34.4275C41.1894 34.3302 41.2844 34.1938 41.3307 34.0385C41.377 33.8831 41.3723 33.717 41.3171 33.5645L41.2414 33.2769L41.5972 33.5418C41.7275 33.6383 41.8854 33.6904 42.0476 33.6904C42.2098 33.6904 42.3677 33.6383 42.498 33.5418L42.9901 33.1784L42.8009 33.7992C42.7543 33.9491 42.7556 34.1098 42.8044 34.259C42.8532 34.4082 42.9472 34.5385 43.0734 34.6319L43.3308 34.8212H43.0204C42.8591 34.8175 42.7009 34.8655 42.5688 34.9581C42.4367 35.0507 42.3377 35.1831 42.2861 35.3359L42.2785 35.3132Z" fill="white"/>
<path d="M41.8167 42.3611C41.6749 42.2201 41.483 42.1409 41.283 42.1409C41.083 42.1409 40.8912 42.2201 40.7493 42.3611L39.9469 43.1862L39.1445 42.3611C38.9996 42.2371 38.8134 42.1722 38.6228 42.1796C38.4323 42.187 38.2516 42.2659 38.1168 42.4008C37.9819 42.5356 37.903 42.7163 37.8956 42.9068C37.8882 43.0974 37.953 43.2837 38.0771 43.4285L38.8795 44.2309L38.0771 45.0334C38.004 45.1034 37.9454 45.1872 37.9048 45.2799C37.8641 45.3727 37.842 45.4725 37.8399 45.5737C37.8378 45.6749 37.8557 45.7756 37.8925 45.8699C37.9293 45.9642 37.9843 46.0504 38.0544 46.1235C38.1244 46.1965 38.2082 46.2551 38.3009 46.2958C38.3937 46.3364 38.4935 46.3585 38.5947 46.3606C38.6959 46.3627 38.7966 46.3448 38.8909 46.3081C38.9852 46.2713 39.0714 46.2163 39.1445 46.1462L39.9469 45.321L40.7493 46.1462C40.8942 46.2702 41.0804 46.335 41.271 46.3276C41.4615 46.3203 41.6422 46.2413 41.777 46.1065C41.9119 45.9717 41.9908 45.7909 41.9982 45.6004C42.0056 45.4099 41.9408 45.2236 41.8167 45.0788L41.0143 44.2536L41.8167 43.4512C41.89 43.3806 41.9483 43.2959 41.9881 43.2023C42.0279 43.1086 42.0484 43.0079 42.0484 42.9061C42.0484 42.8044 42.0279 42.7037 41.9881 42.61C41.9483 42.5164 41.89 42.4317 41.8167 42.3611Z" fill="white"/>
</svg>
